<svg viewBox="31.236486486486513 0 366.6891891891892 544.9999999999999" xmlns="http://www.w3.org/2000/svg" xmlns:xlink="http://www.w3.org/1999/xlink" overflow="visible" width="366.6891891891892px" height="544.9999999999999px"><defs><path d="M148.640872,414.988848 L27.7458936,419.210594 C18.7158011,419.525932 11.1398329,412.461227 10.8244951,403.431135 L0.375077719,104.198971 C0.0597399402,95.168878 7.12444451,87.5929099 16.154537,87.2775721 L44.8578599,0.650926334 L340.15489,0.650926334 L340.15489,545.324194 L210.432361,545.324194 C170.3946,458.393575 149.797437,414.94846 148.640872,414.988848 Z" id="mastercompositionphone-path-1"/></defs><g id="Master/Composition/Phone" stroke="none" stroke-width="1" fill="none" fill-rule="evenodd"><g id="Background" opacity=".2" transform="translate(46.000000, -1.000000)"><circle id="Oval" fill="#FFA434" cx="154.851" cy="198.267" r="154.851"/><circle id="Oval" fill="#89c5cc" cx="249.109" cy="518.069" r="27.604"/><polygon id="Polygon" fill="#89c5cc" points="129.277228 0.98019802 162.277228 33.980198 129.277228 66.980198 96.2772277 33.980198"/><polygon id="Polygon" fill="#FFA434" points="37.7029703 465.554455 53.8613861 481.712871 37.7029703 497.871287 21.5445545 481.712871"/><polygon id="Polygon" fill="#2026A2" points="271.326733 43.4158416 279.405941 51.4950495 271.326733 59.5742574 263.247525 51.4950495"/></g><g id="Phone" transform="translate(31.830542, 74.998197)"><path d="M23.6844272,4.19999901 L143.520295,0.0152382774 C157.065434,-0.457768391 168.429386,10.1392885 168.902393,23.6844272 L179.313777,321.827451 C179.786784,335.37259 169.189727,346.736542 155.644588,347.209549 L35.8087197,351.394309 C22.2635809,351.867316 10.8996288,341.270259 10.4266221,327.72512 L0.0152382774,29.5820966 C-0.457768391,16.0369579 10.1392885,4.67300568 23.6844272,4.19999901 Z" id="base" fill="#F2F2F2"/><path d="M42.5752937,13.6798635 C42.7508502,18.7071431 46.8976668,22.6594379 51.8955462,22.627117 L52.1640861,22.6215571 L116.370557,20.3794177 C121.397837,20.2038613 125.350132,16.0570446 125.317811,11.0591652 L125.312251,10.7906253 L125.217065,8.06485602 L144.064084,7.40670361 C153.094176,7.09136583 160.670144,14.1560704 160.985482,23.1861629 L171.4349,322.418327 C171.750237,331.44842 164.685533,339.024388 155.65544,339.339726 L34.760462,343.561471 C25.7303695,343.876809 18.1544014,336.812104 17.8390636,327.782012 L7.38964619,28.5498477 C7.07430841,19.5197552 14.139013,11.9437871 23.1691055,11.6284493 L42.4801077,10.9540942 L42.5752937,13.6798635 Z" id="Screen" fill="#240E6A"/></g><g id="Character" transform="translate(294.500000, 349.500000) scale(-1, 1) translate(-294.500000, -349.500000) translate(191.000000, 200.000000)"><g id="Head/Front" transform="translate(74.572859, 52.187723) rotate(-27.000000) translate(-74.572859, -52.187723) translate(28.790680, 17.177822) scale(0.6732647058823529 0.6732692307692307)"><g id="Head/Front/Top" stroke="none" stroke-width="1" fill="none" fill-rule="evenodd"><g id="Head" transform="translate(54.000000, 31.000000)" fill="#b28b67"><path d="M38.1433414,9.13393292 C43.9381521,19.9350547 43.249578,47.3329958 35.7603014,49.2634576 C32.773664,50.0333035 26.4113241,48.1475566 19.935865,44.2446031 L24,73 L0,73 L8.26160177,34.4893378 C3.65406109,29.0807313 0.535660132,22.452516 1.05677633,15.0254539 C2.55833022,-6.37502057 32.3485306,-1.66718886 38.1433414,9.13393292 Z" id="SKIN"/></g><path d="M52,16 C60.2842712,16 67,22.7157288 67,31 L66.9973324,30.7869626 C79.0540462,26.6094246 94.7009761,31.4903648 92.6071441,41.2806601 C91.2626171,47.5673707 83.9814383,50.7073555 76.818281,54.067812 C75.7649022,52.2369923 73.7540137,51 71.4466684,51 C68.0464589,51 65.2900445,53.6862915 65.2900445,57 C65.2900445,58.1935612 65.647651,59.3057239 66.2641422,60.2402777 C63.8547022,62.3363574 62.1544354,64.8594168 61.7432388,68.1317726 C57.8594273,68.1317726 51.5820729,56.7283038 53.6546875,45.9093462 C53.1114025,45.9693919 52.5592757,46 52,46 C43.7157288,46 37,39.2842712 37,31 C37,22.7157288 43.7157288,16 52,16 Z" id="Hair" fill="#4a312c"/></g></g><g id="Bottom/Standing" transform="translate(4.712871, 137.346535) scale(0.6732666666666667 0.6732677824267782)"><g id="Bottom/Standing/Skirt" stroke="none" stroke-width="1" fill="none" fill-rule="evenodd"><path d="M97.4078252,98.0880741 C121.397173,104.797924 142.094458,108.152849 159.499678,108.152849 C176.904899,108.152849 193.071673,102.986324 208,92.6532736 C184.524241,85.7662231 165.190908,82.3226979 150,82.3226979 C134.809092,82.3226979 117.278368,87.5778233 97.4078252,98.0880741 Z" id="Skirt-Shadow" fill="#56919c"/><path d="M180.266835,117.824327 C180.035521,117.476585 179.840175,117.098311 179.685231,116.688552 C176.478637,108.208488 125.116885,16.7255336 120,0 L177.826087,0 C181.716527,12.7166594 199.227018,92.5197596 201.69132,108.441654 C209.466648,133.556719 225.475271,214.895245 227.518903,220.530129 C229.66877,226.457932 217.572184,232.63317 214.348729,225.345671 C209.219667,213.750031 196.998649,181.665102 191.557135,162.074268 C186.455728,143.707903 182.301821,127.184501 180.266835,117.824327 Z" id="SKIN" fill="#b28b67"/><path d="M180.266835,117.824327 C180.035521,117.476585 179.840175,117.098311 179.685231,116.688552 C176.478637,108.208488 125.116885,16.7255336 120,0 L177.826087,0 C181.716527,12.7166594 199.227018,92.5197596 201.69132,108.441654 C209.466648,133.556719 225.475271,214.895245 227.518903,220.530129 C229.66877,226.457932 217.572184,232.63317 214.348729,225.345671 C209.219667,213.750031 196.998649,181.665102 191.557135,162.074268 C186.455728,143.707903 182.301821,127.184501 180.266835,117.824327 Z" id="Shadow" fill-opacity=".1" fill="#000"/><path d="M132.957062,128.993595 C109.475313,134.928474 23.5840287,145.657684 17.6897926,147.340533 C11.6264626,149.07166 6.31008232,136.573779 13.8046857,133.866526 C25.7298651,129.558829 58.589132,119.605712 78.5118243,115.544042 C94.5364316,112.27708 109.159082,109.611243 118.976345,108.050159 C118.144649,80.4734403 114.342756,14.2935455 116.834687,1.42108547e-14 L168,1.42108547e-14 C165.610405,13.7065491 145.410112,113.717714 141.6556,123.728549 C140.464101,127.302484 136.908919,128.8819 132.957062,128.993595 L132.957062,128.993595 Z" id="SKIN" fill="#b28b67"/><g id="Left" transform="translate(15.057502, 158.157254) rotate(80.000000) translate(-15.057502, -158.157254) translate(-13.942498, 147.657254)" fill="#E4E4E4"><path d="M1.67813181,6.40192425 C0.559377268,9.38841089 0,11.6229931 0,13.1056708 C0,14.908957 0.300414205,17.5404001 0.901242614,21 C2.99318117,21 21.7937852,21 57.3030548,21 C58.768738,16.1545073 57.9226607,13.5385816 54.7648228,13.1522232 C51.606985,12.7658647 48.9837155,12.4170139 46.8950143,12.1056708 L20.6799926,0.41888346 C20.1755635,0.194006431 19.584344,0.4206282 19.359467,0.925057349 C19.35562,0.933686736 19.3518954,0.94237021 19.3482945,0.951105155 L17.6632131,5.03869504 L17.6632131,5.03869504 C14.7398812,6.40265216 12.3643706,7.08463071 10.5366811,7.08463071 C9.05172687,7.08463071 7.00099246,6.48490544 4.38447792,5.28545491 L4.38448339,5.28544297 C3.38038273,4.82514778 2.19325534,5.26598921 1.73296014,6.27008987 C1.71312074,6.31336808 1.69483298,6.35734088 1.67813181,6.40192425 Z" id="shoe"/></g><g id="Right" transform="translate(209.000000, 218.000000)" fill="#E4E4E4"><path d="M1.67813181,6.40192425 C0.559377268,9.38841089 0,11.6229931 0,13.1056708 C0,14.908957 0.300414205,17.5404001 0.901242614,21 C2.99318117,21 21.7937852,21 57.3030548,21 C58.768738,16.1545073 57.9226607,13.5385816 54.7648228,13.1522232 C51.606985,12.7658647 48.9837155,12.4170139 46.8950143,12.1056708 L20.6799926,0.41888346 C20.1755635,0.194006431 19.584344,0.4206282 19.359467,0.925057349 C19.35562,0.933686736 19.3518954,0.94237021 19.3482945,0.951105155 L17.6632131,5.03869504 L17.6632131,5.03869504 C14.7398812,6.40265216 12.3643706,7.08463071 10.5366811,7.08463071 C9.05172687,7.08463071 7.00099246,6.48490544 4.38447792,5.28545491 L4.38448339,5.28544297 C3.38038273,4.82514778 2.19325534,5.26598921 1.73296014,6.27008987 C1.71312074,6.31336808 1.69483298,6.35734088 1.67813181,6.40192425 Z" id="shoe"/></g><path d="M117,3.55271368e-15 C139.546839,-6.45073907 160.880173,-6.45073907 181,3.55271368e-15 C188,31.9374682 205.00894,44.6134741 208,93.5789257 C174,110.472724 132,81.5304571 97,98.005311 C87,74.9611073 101,19.4645181 117,3.55271368e-15 Z" id="Skirt" fill="#89c5cc"/></g></g><g id="Body" transform="translate(99.164335, 132.426606) rotate(-14.000000) translate(-99.164335, -132.426606) translate(12.986117, 69.476111) scale(0.673265625 0.6732673796791444)"><g id="Body/Pointing Up" stroke="none" stroke-width="1" fill="none" fill-rule="evenodd"><path d="M188.106855,69.1681252 L220.005126,92.5917238 C228.656594,94.9262021 235.884616,97.8306872 241.689192,101.305179 C243.060333,102.554584 244.717486,105.084837 239.031031,104.647546 C233.344575,104.210255 227.34361,104.006032 226.55899,105.945594 C225.774369,107.885156 229.215504,110.204659 227.629445,112.821636 C226.572072,114.566288 221.576617,110.191639 212.64308,99.6976902 L181.055424,86.5990869 L188.106855,69.1681252 Z M250.438302,-16.9769837 C246.666871,-12.6987465 242.892301,-8.02906778 243.969107,-6.23518449 C245.045914,-4.44130119 248.969279,-5.79360164 250.104775,-2.95198204 C250.861773,-1.05756897 244.361683,0.299249329 230.604506,1.11847287 L201.133571,18.4625605 L191.456243,2.34082269 L229.360019,-9.03759567 C236.431,-14.5420411 243.100557,-18.5666331 249.36869,-21.1113719 C251.191683,-21.4545034 254.209733,-21.2552209 250.438302,-16.9769837 Z" id="SKIN" fill="#b28b67"/><path d="M126.984936,15.649923 C152.146796,42.4399518 182.83581,59.9216266 224.690767,75.4277614 L215.396057,94.0136202 C172.211363,89.9419212 149.124049,86.6900124 131.024869,59.8586619 C126.482342,53.1245369 118.360034,29.953677 113.494175,17.9210142 L126.984936,15.649923 Z" id="Coat-Back" fill="#c5cfd6" transform="translate(169.092471, 54.831772) rotate(15.000000) translate(-169.092471, -54.831772)"/><path d="M90,114 L167,114 C149.558211,60.8053811 140.648283,24.2959016 140.270216,4.47156148 C140.250941,3.46089747 138.384379,1.67996472 137.55857,1.91319372 C131.519523,3.61877223 125.057267,2.98104099 118.1718,0 C99.917485,29.3584068 93.6048263,65.5045499 90,114 Z" id="Shirt" fill="#F2F2F2"/><path d="M223.922675,-9 L228,11.3734803 C196.786296,31.4485846 165.179799,46.9996172 137.484777,44.7906365 C149.512447,96.376906 148.958039,138.605966 122.407472,138.605966 L122.407472,138.605966 L81.3511268,138.605966 C74.8304314,94.783947 91.9680949,34.0236152 107.855955,3.37659428 C108.462665,2.20627687 109.75441,-3.65929509e-13 112.797001,-3.65929509e-13 L112.797001,-3.65929509e-13 L124.726763,-3.65929509e-13 C124.732077,0.0159997287 124.73739,0.0319994436 124.742703,0.047999144 C146.814341,0.228141895 182.62406,4.25863713 223.922675,-9 Z" id="Coat-Front" fill="#f2f2f2"/></g></g></g><g id="illustration" transform="translate(38.845110, -0.650926)"><mask id="mastercompositionphone-mask-2" fill="#ffffff"><use xlink:href="#mastercompositionphone-path-1" fill="#ffffff"/></mask><g id="Screen"/><g mask="url(#mastercompositionphone-mask-2)"><g transform="translate(163.987678, 118.803809) rotate(44.000000) translate(-163.987678, -118.803809) translate(85.677617, 59.000000) scale(1.1516176470588235 1.1500769230769232)" id="Head/Front"><g id="Head/Front/Short 2" stroke="none" stroke-width="1" fill="none" fill-rule="evenodd"><g id="Head" transform="translate(54.000000, 31.000000)" fill="#b28b67"><path d="M38.1433414,9.13393292 C43.9381521,19.9350547 43.249578,47.3329958 35.7603014,49.2634576 C32.773664,50.0333035 26.4113241,48.1475566 19.935865,44.2446031 L24,73 L0,73 L8.26160177,34.4893378 C3.65406109,29.0807313 0.535660132,22.452516 1.05677633,15.0254539 C2.55833022,-6.37502057 32.3485306,-1.66718886 38.1433414,9.13393292 Z" id="SKIN"/></g><path d="M60.4181384,70.3075201 C57.4059021,56.9064588 48.8245327,47.7714043 50.1351137,41.781703 C51.0088343,37.7885688 53.3375617,35.3053788 57.1212959,34.3321331 C59.0782074,26.4155009 65.3896485,23.0482486 76.0556193,24.2303763 C92.0545754,26.0035679 101.819448,32.6477587 97.6024819,47.2678779 C93.7260987,47.2678779 89.0464758,45.8659867 82.57553,48.2678779 C80.5223249,49.0299883 79.0538125,51.3933595 78.1699927,55.3579915 L75.2457978,55.3579915 C72.4077436,50.6530572 69.6094038,48.9241222 66.8507787,50.1711866 C64.0921535,51.418251 63.4650732,54.4473753 64.9695377,59.2585597 L63.529076,70.3075201 L60.4181384,70.3075201 Z" id="Hair" fill="#4a312c"/></g></g></g><g mask="url(#mastercompositionphone-mask-2)"><g transform="translate(28.693069, 365.730659) rotate(12.000000) translate(-28.693069, -365.730659) translate(-144.000000, 228.047491) scale(1.1512866666666668 1.1521589958158995)" id="Bottom/Standing"><g id="Bottom/Standing/Baggy Pants" stroke="none" stroke-width="1" fill="none" fill-rule="evenodd"><polygon id="SKIN" fill="#b28b67" points="134 0 183.081639 124.226909 216.000898 229.25029 229 229.25029 176.673688 5.090379e-13"/><path d="M124.116628,0 C123.593979,43.6541888 115.971833,102.427468 114.754071,105.148648 C113.942229,106.962768 85.9161573,130.032465 30.6758546,174.357739 L39.6290713,183.938736 C104.807511,145.935376 138.9048,124.399339 141.920937,119.330628 C146.445143,111.72756 161.1744,41.763137 173,0 L124.116628,0 Z" id="SKIN" fill="#b28b67"/><g id="Left" transform="translate(43.901184, 194.723460) rotate(50.000000) translate(-43.901184, -194.723460) translate(14.901184, 184.223460)" fill="#E4E4E4"><path d="M1.67813181,6.40192425 C0.559377268,9.38841089 -2.27373675e-13,11.6229931 -2.27373675e-13,13.1056708 C-2.27373675e-13,14.908957 0.300414205,17.5404001 0.901242614,21 C2.99318117,21 21.7937852,21 57.3030548,21 C58.768738,16.1545073 57.9226607,13.5385816 54.7648228,13.1522232 C51.606985,12.7658647 48.9837155,12.4170139 46.8950143,12.1056708 L20.6799926,0.41888346 C20.1755635,0.194006431 19.584344,0.4206282 19.359467,0.925057349 C19.35562,0.933686736 19.3518954,0.94237021 19.3482945,0.951105155 L17.6632131,5.03869504 L17.6632131,5.03869504 C14.7398812,6.40265216 12.3643706,7.08463071 10.5366811,7.08463071 C9.05172687,7.08463071 7.00099246,6.48490544 4.38447792,5.28545491 L4.38448339,5.28544297 C3.38038273,4.82514778 2.19325534,5.26598921 1.73296014,6.27008987 C1.71312074,6.31336808 1.69483298,6.35734088 1.67813181,6.40192425 Z" id="shoe"/></g><g id="Right-{Shoe]" transform="translate(209.000000, 218.000000)" fill="#E4E4E4"><path d="M1.67813181,6.40192425 C0.559377268,9.38841089 0,11.6229931 0,13.1056708 C0,14.908957 0.300414205,17.5404001 0.901242614,21 C2.99318117,21 21.7937852,21 57.3030548,21 C58.768738,16.1545073 57.9226607,13.5385816 54.7648228,13.1522232 C51.606985,12.7658647 48.9837155,12.4170139 46.8950143,12.1056708 L20.6799926,0.41888346 C20.1755635,0.194006431 19.584344,0.4206282 19.359467,0.925057349 C19.35562,0.933686736 19.3518954,0.94237021 19.3482945,0.951105155 L17.6632131,5.03869504 L17.6632131,5.03869504 C14.7398812,6.40265216 12.3643706,7.08463071 10.5366811,7.08463071 C9.05172687,7.08463071 7.00099246,6.48490544 4.38447792,5.28545491 L4.38448339,5.28544297 C3.38038273,4.82514778 2.19325534,5.26598921 1.73296014,6.27008987 C1.71312074,6.31336808 1.69483298,6.35734088 1.67813181,6.40192425 Z" id="shoe"/></g><polygon id="Pant" fill="#56919c" points="167 218.432889 228.804464 211.725327 179 2.84217094e-14 127.644073 2.84217094e-14"/><path d="M43.4599581,158.900479 L84,206.885961 C126.699953,160.249961 151.594137,129.819963 158.682552,115.595966 C165.770967,101.37197 172.143091,62.839981 177.798925,0 L115.478146,0 C112.388642,55.2838742 110.306102,84.2121259 109.230525,86.7847551 C108.154948,89.3573843 86.2314253,113.395959 43.4599581,158.900479 Z" id="Pant" fill="#89c5cc"/></g></g></g><g mask="url(#mastercompositionphone-mask-2)"><g transform="translate(76.428931, 237.169427) rotate(33.000000) translate(-76.428931, -237.169427) translate(-70.978244, 129.637579) scale(1.1516171875 1.1500748663101603)" id="Body"><defs><path d="M8.50486985,11.3641526 C20.5328809,13.1391664 36.9471722,13.1391664 55.7504485,5 L60.0903301,21.0261575 C46.4526921,30.855406 28.3595972,37.8403661 13.9345776,35.1385465 C2.56686704,33.0093637 -1.08139191,18.2733952 8.50486985,11.3641526 Z" id="bodypointing-forward-path-1"/><path d="M65.5437498,1.98951966e-13 C67.0746794,19.6687489 74.7801887,41.3453869 81.1040065,62.7603513 C94.0105334,65.9801967 115.654578,62.1842978 146.035933,51.3734208 C153.571674,66.9635189 157.055257,78.0780631 156.486685,84.7170535 C130.420927,98.3327976 108.0808,104.402393 89.6761367,104.801687 C90.2685109,115.717837 88.9396772,126.110233 84.4739328,135.605966 C75.2946804,155.124265 21.5450578,137.048144 3.47278757,140.605966 C-7.84459943,103.85132 14.0379108,88.9143806 14.0555178,65.3966157 C14.0747993,39.6421572 34.7544101,1.98951966e-13 37.7970006,1.98951966e-13 L37.7970006,1.98951966e-13 Z" id="bodypointing-forward-path-3"/></defs><g id="Body/Pointing Forward" stroke="none" stroke-width="1" fill="none" fill-rule="evenodd"><path d="M238.556381,46.4077826 C242.889175,45.5157805 253.464286,37.6506887 255.286431,39.2475996 C257.982176,41.6101262 255.578484,48.864452 252.746364,52.4730906 C247.453134,59.2176317 243.070569,61.5240612 232.238377,64.5443446 C226.574749,66.1235046 220.451364,69.288795 213.868224,74.0402157 L213,58.7398397 L228.246523,50.3642065 C230.385826,42.2239107 232.943102,38.1282526 235.918351,38.0772323 C238.203961,37.0137608 234.223587,47.2997848 238.556381,46.4077826 Z M212.314801,11.541507 C209.515281,16.510379 206.794075,21.8627914 208.22032,23.3935933 C209.646565,24.9243953 213.203036,22.7859324 214.904525,25.3293729 C216.038851,27.0249998 209.962902,29.703613 196.676679,33.3652124 L171.455792,56.4576422 L158.638039,42.7002327 L193.347821,23.6898218 C199.119845,16.8355222 204.806897,11.5121983 210.408976,7.71984988 C212.120791,7.00519513 215.114322,6.57263502 212.314801,11.541507 Z" id="SKIN" fill="#997659"/><g id="Group-3" transform="translate(134.353117, 23.386150)"><mask id="bodypointing-forward-mask-2" fill="#ffffff"><use xlink:href="#bodypointing-forward-path-1" fill="#ffffff"/></mask><use id="Mask" fill="#c5cfd6" transform="translate(31.545165, 20.361910) rotate(-9.000000) translate(-31.545165, -20.361910)" xlink:href="#bodypointing-forward-path-1"/></g><g id="Group-27" transform="translate(77.000000, -0.000000)"><mask id="bodypointing-forward-mask-4" fill="#ffffff"><use xlink:href="#bodypointing-forward-path-3" fill="#ffffff"/></mask><use id="Mask" fill="#f2f2f2" xlink:href="#bodypointing-forward-path-3"/></g></g></g></g></g></g></svg>